<svg width="25" height="24" viewBox="0 0 25 24" fill="none" xmlns="http://www.w3.org/2000/svg">
<path d="M22.6665 7.81001V16.19C22.6665 19.4 20.0665 22 16.8565 22H8.4765C5.2665 22 2.6665 19.4 2.6665 16.19V7.81001C2.6665 5.32001 3.6865 3.51001 5.4965 2.63001C6.1565 2.31001 6.9165 2.81001 6.9165 3.54001V12.42C6.9165 13.61 7.3765 14.56 8.2065 15.04C9.0465 15.51 10.1065 15.41 11.1865 14.76L12.4865 13.98C12.5665 13.94 12.7665 13.94 12.8265 13.97L14.1465 14.76C14.8665 15.19 15.4865 15.33 15.9865 15.33C16.5065 15.33 16.9065 15.17 17.1465 15.03C17.9565 14.56 18.4165 13.61 18.4165 12.42V3.54001C18.4165 2.81001 19.1865 2.31001 19.8365 2.63001C21.6465 3.51001 22.6665 5.32001 22.6665 7.81001Z" fill="#009688"/>
<path d="M15.9165 2C16.4665 2 16.9165 2.45 16.9165 3V12.42C16.9165 13.06 16.7265 13.54 16.3965 13.73C16.0565 13.93 15.5165 13.83 14.9165 13.47L13.5965 12.68C13.0865 12.37 12.2465 12.37 11.7365 12.68L10.4165 13.47C9.8165 13.83 9.2765 13.92 8.9365 13.73C8.6065 13.54 8.4165 13.06 8.4165 12.42V3C8.4165 2.45 8.8665 2 9.4165 2H15.9165Z" fill="#009688"/>
</svg>
