<svg width="22" height="21" viewBox="0 0 22 21" fill="none" xmlns="http://www.w3.org/2000/svg">
<path d="M9.04267 1.65016L9.04306 1.64985C10.1273 0.779042 11.8675 0.784136 12.968 1.66073C12.9681 1.66084 12.9682 1.66094 12.9684 1.66105L19.514 6.89756C19.5146 6.89802 19.5152 6.89849 19.5157 6.89895C19.893 7.20711 20.2196 7.68942 20.4304 8.24099C20.641 8.79218 20.7196 9.36987 20.6462 9.85096L19.3873 17.3845C19.3872 17.385 19.3872 17.3855 19.3871 17.3859C19.1374 18.8188 17.7432 20 16.3 20H5.69996C4.23549 20 2.8725 18.8476 2.62294 17.3965C2.62288 17.3961 2.62282 17.3958 2.62276 17.3955L1.36313 9.85761L1.36293 9.85646C1.28079 9.3718 1.35452 8.79296 1.56465 8.24192C1.77476 7.69094 2.10548 7.20909 2.4918 6.90086L2.49267 6.90016L9.04267 1.65016ZM11 17.75C11.6861 17.75 12.25 17.1862 12.25 16.5V13.5C12.25 12.8139 11.6861 12.25 11 12.25C10.3138 12.25 9.74996 12.8139 9.74996 13.5V16.5C9.74996 17.1862 10.3138 17.75 11 17.75Z" fill="#009688" stroke="#009688"/>
</svg>
