<svg width="25" height="24" viewBox="0 0 25 24" fill="none" xmlns="http://www.w3.org/2000/svg">
<path d="M11.9167 6.00002V19.91C11.9167 20.62 11.1967 21.11 10.5467 20.84C8.68675 20.06 6.37675 19.38 4.73675 19.16L4.42675 19.12C3.45675 19 2.66675 18.11 2.66675 17.14V5.25002C2.66675 4.05002 3.63675 3.08002 4.83675 3.08002H4.90675C6.78675 3.24002 9.55675 4.12002 11.3867 5.11002C11.7167 5.29002 11.9167 5.62002 11.9167 6.00002Z" fill="#009688"/>
<path d="M20.4967 3.08002H20.4367C20.1967 3.10002 19.9367 3.13002 19.6667 3.18002C18.4367 3.38002 16.9767 3.80002 15.6667 4.32002C15.0467 4.57002 14.4667 4.84002 13.9567 5.11002C13.6267 5.29002 13.4167 5.63002 13.4167 6.00002V19.91C13.4167 20.62 14.1367 21.11 14.7867 20.84C16.6467 20.06 18.9567 19.38 20.5967 19.16L20.9067 19.12C21.8767 19 22.6667 18.11 22.6667 17.14V5.25002C22.6667 4.05002 21.6967 3.08002 20.4967 3.08002ZM19.9367 13.73C19.9367 14.12 19.6567 14.29 19.3167 14.1L18.2567 13.51C18.1467 13.45 17.9667 13.45 17.8467 13.51L16.7867 14.1C16.4467 14.29 16.1667 14.12 16.1667 13.73V10.66C16.1667 10.2 16.5467 9.82002 17.0067 9.82002H19.1067C19.5667 9.82002 19.9467 10.2 19.9467 10.66V13.73H19.9367Z" fill="#009688"/>
</svg>
