<svg width="24" height="24" viewBox="0 0 24 24" fill="none" xmlns="http://www.w3.org/2000/svg">
<path d="M18.375 0H5.625C2.5184 0 0 2.5184 0 5.625V18.375C0 21.4816 2.5184 24 5.625 24H18.375C21.4816 24 24 21.4816 24 18.375V5.625C24 2.5184 21.4816 0 18.375 0Z" fill="#F6F6F6"/>
<path d="M3.90338 19.0349H6.88631V11.7906L2.625 8.59463V17.7565C2.625 18.4639 3.19819 19.0349 3.90338 19.0349Z" fill="#4285F4"/>
<path d="M17.1138 19.0349H20.0968C20.8041 19.0349 21.3752 18.4617 21.3752 17.7565V8.59453L17.1138 11.7906" fill="#34A853"/>
<path d="M17.1138 6.25078V11.7906L21.3752 8.59463V6.88987C21.3752 5.30897 19.5705 4.40766 18.307 5.35584" fill="#FBBC04"/>
<path d="M6.88623 11.7906V6.25087L11.9998 10.0859L17.1134 6.25069V11.7905L11.9998 15.6258" fill="#EA4335"/>
<path d="M2.625 6.88997V8.59453L6.88631 11.7906V6.25087L5.69316 5.35594C4.42753 4.40775 2.625 5.30906 2.625 6.88997Z" fill="#C5221F"/>
</svg>
