<svg width="31" height="14" viewBox="0 0 31 14" fill="none" xmlns="http://www.w3.org/2000/svg">
<path d="M28.7557 11.5154V0H30.5V11.4422C30.5 11.4422 30.4818 11.6804 30.4344 11.8822C30.2265 12.7641 29.8668 13.0945 29.3902 13.4521C28.9659 13.77 28.276 13.9052 27.9711 13.9052C27.6017 13.9052 26.9946 13.7883 26.5709 13.5011C26.1264 13.2 26.0104 12.9866 25.653 12.4313C25.4057 12.0474 22.4957 7.50521 22.4957 7.50521V11.4422C22.4957 11.4422 22.5157 11.8763 22.3093 12.3399C22.1864 12.6153 21.9464 13.0853 21.374 13.4749C20.9029 13.7955 20.3454 13.9052 19.9783 13.9052C19.5667 13.9052 19.1401 13.7883 18.7785 13.6068C18.249 13.3426 17.9622 12.9292 17.9622 12.9292L14.4838 7.47794V11.6812C14.4838 11.6812 14.457 12.2224 14.3359 12.5206C14.2148 12.8198 14.0673 13.0586 13.9234 13.1906C13.7798 13.3231 13.6374 13.4655 13.3913 13.598C13.1463 13.731 12.7618 13.8819 12.4309 13.8819H7.05153C5.44914 13.8819 3.70858 12.9895 2.66963 11.9945C1.11964 10.5095 0.555483 8.82002 0.500695 6.97204C0.493158 6.7201 0.54053 5.52145 0.964484 4.46324C1.4211 3.32476 2.2568 2.33115 2.2568 2.33115C2.83484 1.65431 3.74806 0.923153 4.90065 0.489628C5.43921 0.287221 5.93602 0.131229 6.36093 0.0691432C6.7039 0.0196181 7.15178 0 7.15178 0H10.0208L10.0168 1.77046H7.07079C6.2815 1.77046 4.9186 2.15554 3.9732 3.10082C3.50713 3.56689 2.91319 4.29014 2.60061 5.06113C2.27786 5.85629 2.24448 6.69905 2.24448 7.08341C2.24448 7.46609 2.36148 8.55361 2.80134 9.43932C3.23319 10.3083 3.98516 10.9774 4.24726 11.1792C4.9771 11.7379 6.00731 12.285 6.97724 12.2778H12.3021C12.4206 12.2778 12.5361 12.2399 12.6422 12.1225C12.7722 11.9796 12.7627 11.8059 12.7627 11.8059V2.61454C12.7627 2.52435 12.8826 2.38151 13.0562 2.38151C13.2308 2.38151 13.3076 2.50233 13.3076 2.50233L19.2357 11.8601C19.2357 11.8601 19.448 12.1846 19.6782 12.2539C19.9442 12.3334 20.2262 12.3014 20.4692 12.1029C20.7504 11.8739 20.7517 11.492 20.7517 11.492V2.6021C20.7517 2.48188 20.8864 2.3467 21.0918 2.38522C21.2965 2.42446 21.3893 2.63655 21.3893 2.63655L27.2208 11.8249C27.2208 11.8249 27.4268 12.1447 27.664 12.2373C27.8572 12.3131 28.1595 12.3202 28.4282 12.1237C28.6976 11.9267 28.7557 11.6296 28.7557 11.5154Z" fill="#FF0000"/>
<path d="M26.4192 0H28.1771V11.4069C28.1771 11.4069 28.1559 11.5923 27.9852 11.6432C27.8155 11.693 27.6687 11.6309 27.5603 11.4494C27.4519 11.2679 21.6824 2.18808 21.5822 2.04524C21.4817 1.90229 21.1762 1.68936 20.7865 1.77429C20.5593 1.82382 20.1824 1.9761 20.1824 2.4936V11.3411C20.1824 11.3411 20.1435 11.5584 20.0004 11.6348C19.8575 11.7125 19.7186 11.6974 19.5634 11.4612C19.4088 11.2255 13.8019 2.35472 13.6315 2.10733C13.4607 1.85994 13.0945 1.67775 12.7577 1.78613C12.4214 1.89511 12.1659 2.21882 12.1659 2.58703V11.4416C12.1659 11.4416 12.1781 11.6767 11.9299 11.6767H6.94947C6.94947 11.6767 5.12841 11.48 3.9721 10.2275C2.85516 9.01716 2.64198 7.69841 2.65371 6.8944C2.66519 6.09003 3.10183 4.48944 4.20406 3.59249C5.30641 2.69481 6.3584 2.34299 7.30165 2.36979C8.24562 2.39718 9.91213 2.36979 9.91213 2.36979V3.99H7.21289C7.21289 3.99 5.65871 4.01225 4.8285 5.43269C3.99878 6.85385 4.54487 8.26651 5.24074 9.06358C6.01424 9.94941 7.3056 9.95132 7.3056 9.95132H10.2343C10.2343 9.95132 10.4314 9.89342 10.4314 9.69089V2.28868C10.4314 2.28868 10.4781 1.28012 11.3015 0.665239C12.1251 0.0496444 12.7634 -0.0136374 13.4306 0.073211C14.0977 0.160059 14.6425 0.56607 14.8693 0.862503C15.0952 1.15762 18.4301 6.3897 18.4301 6.3897V2.59624C18.4301 2.59624 18.4803 1.45202 19.0953 0.842884C19.7102 0.233749 20.4081 -0.0657944 21.2723 0.0385194C21.7632 0.0973753 22.183 0.189368 22.8789 0.885232C22.8789 0.885232 23.0786 1.15212 23.1615 1.26911C23.2503 1.39376 23.2252 1.37151 23.3026 1.49437C23.4538 1.73194 26.4229 6.3897 26.4229 6.3897L26.4192 0Z" fill="#FF0000"/>
</svg>
