<svg width="40" height="40" viewBox="0 0 40 40" fill="none" xmlns="http://www.w3.org/2000/svg">
<path d="M20.0006 31.2305C26.203 31.2305 31.2311 26.2024 31.2311 20C31.2311 13.7976 26.203 8.76953 20.0006 8.76953C13.7982 8.76953 8.77017 13.7976 8.77017 20C8.77017 26.2024 13.7982 31.2305 20.0006 31.2305Z" fill="#CCCCCC"/>
<path d="M25.8263 25.8263C29.0441 22.6085 29.0441 17.3915 25.8263 14.1737C22.6085 10.9559 17.3914 10.9559 14.1736 14.1737C10.9559 17.3915 10.9559 22.6085 14.1736 25.8263C17.3914 29.0441 22.6085 29.0441 25.8263 25.8263Z" fill="#FF6F61"/>
<path d="M23.4229 23.4229C25.3133 21.5325 25.3133 18.4675 23.4229 16.5771C21.5325 14.6867 18.4676 14.6867 16.5772 16.5771C14.6868 18.4675 14.6868 21.5325 16.5772 23.4229C18.4676 25.3133 21.5325 25.3133 23.4229 23.4229Z" fill="#CCCCCC"/>
<path d="M30 30C35.5228 24.4772 35.5228 15.5228 30 10C24.4771 4.47715 15.5228 4.47715 10 10C4.47715 15.5228 4.47715 24.4772 10 30C15.5228 35.5228 24.4771 35.5228 30 30Z" stroke="#333333" stroke-width="0.708815" stroke-miterlimit="10"/>
<path d="M23.0898 6.20036C23.0898 6.20036 29.0476 17.651 17.433 33.9056" stroke="#333333" stroke-width="0.354407" stroke-miterlimit="10"/>
<path d="M29.3921 9.42985C29.3921 9.42985 36.6182 21.234 25.487 33.0381" stroke="#333333" stroke-width="0.354407" stroke-miterlimit="10"/>
<path d="M16.8979 6.20036C16.8979 6.20036 5.0512 13.5999 11.663 31.4209" stroke="#333333" stroke-width="0.354407" stroke-miterlimit="10"/>
<path d="M7.14291 14.1126C7.14291 14.1126 21.6226 7.64586 34.1426 20.0005" stroke="#333333" stroke-width="0.354407" stroke-miterlimit="10"/>
<path d="M6.1608 22.9176C6.1608 22.9176 18.2357 20.053 31.8137 27.773" stroke="#333333" stroke-width="0.354407" stroke-miterlimit="10"/>
<path d="M8.98764 28.8683C8.98764 28.8683 16.0011 33.831 27.4839 31.9989" stroke="#333333" stroke-width="0.354407" stroke-miterlimit="10"/>
<path d="M12.1471 8.23798C12.1471 8.23798 24.6175 3.33534 32.311 13.7204" stroke="#333333" stroke-width="0.354407" stroke-miterlimit="10"/>
</svg>
