<svg width="30" height="21" viewBox="0 0 30 21" fill="none" xmlns="http://www.w3.org/2000/svg">
<g clip-path="url(#clip0_6_184)">
<path fill-rule="evenodd" clip-rule="evenodd" d="M13.0975 14.3588C13.0975 15.3092 12.7173 15.8621 10.8512 15.8621C10.6093 15.8621 10.3846 15.8448 10.1773 15.8102V3.16206C10.1773 2.19443 10.5056 1.19225 12.389 1.19225C12.6309 1.19225 12.8729 1.20953 13.0975 1.26137V14.3588ZM20.7175 19.2488C20.9594 19.3697 21.4605 19.5253 22.0998 19.5425C23.1884 19.5598 23.7759 19.1451 24.2078 18.1775L30.0136 5.25281C29.7717 5.13184 29.236 4.97637 28.8041 4.97637C28.061 4.95905 27.0589 5.11456 26.4195 6.63513L24.5361 11.0585L20.8557 5.06274C20.6138 4.99364 20.0263 4.88995 19.6116 4.88995C18.2985 4.88995 17.5727 5.37377 16.8297 6.18585L13.2357 10.0909L16.1213 14.618C16.6569 15.4474 17.3481 15.8621 18.4885 15.8621C19.2315 15.8621 19.8535 15.6893 20.1473 15.5511L16.6742 10.3501L19.1278 7.74097L23.1711 14.0651L20.7175 19.2488ZM5.71935 15.7757C8.08655 15.5165 9.24426 14.2206 9.24426 12.4409C9.24426 10.903 8.29389 9.65894 6.11676 9.29608L3.97416 8.89868C3.28301 8.77771 2.85103 8.62219 2.85103 8.22479C2.85103 7.84466 3.30029 7.5509 4.38886 7.5509C5.01256 7.5509 5.58523 7.58497 6.07432 7.614C6.43887 7.63568 6.75702 7.6546 7.01526 7.6546C7.81011 7.6546 8.62219 7.32629 8.62219 5.77118C8.62219 5.56384 8.58764 5.3565 8.5531 5.16643C7.37811 5.01092 5.23553 4.80356 3.49035 4.99364C1.17497 5.23553 0 6.63513 0 8.29389C0 9.65893 1.00218 10.9549 2.86831 11.3005L5.11456 11.7324C5.94397 11.9052 6.35865 12.078 6.35865 12.5273C6.35865 12.8556 6.03034 13.2184 4.97632 13.2184C4.47135 13.2184 3.87695 13.1808 3.30856 13.1447C2.78785 13.1118 2.28897 13.0802 1.90069 13.0802C1.10585 13.0802 0.276464 13.4258 0.276464 14.9809C0.276464 15.171 0.311022 15.4128 0.34558 15.6029C1.52055 15.7411 4.00872 15.9658 5.71935 15.7757Z" fill="#880000"/>
<path opacity="0.25" fill-rule="evenodd" clip-rule="evenodd" d="M12.389 1.19225C10.5056 1.19225 10.1946 2.19443 10.1946 3.16206V11.8361C10.1946 11.4905 10.4711 11.1277 10.903 11.1104C11.0518 11.1021 11.331 11.0939 11.6101 11.0856C11.9147 11.0766 12.2192 11.0676 12.3545 11.0585C12.6482 11.0413 13.0802 10.8512 13.0975 10.3155V1.26137C12.8729 1.22681 12.6309 1.19225 12.389 1.19225ZM20.8557 5.06274L24.4498 10.903C24.3115 10.713 24.1387 10.6266 23.9832 10.6266C23.9291 10.6266 23.3142 10.6501 22.7266 10.6726L22.7254 10.6727L22.7248 10.6727H22.7238C22.1873 10.6933 21.6745 10.713 21.6333 10.713C21.5296 10.713 21.0803 10.713 20.7866 10.3155L19.1278 7.72369L16.6742 10.3328L17.3135 11.3005C17.1407 11.0758 16.8643 10.8857 16.415 10.903C16.3498 10.903 15.9301 10.9185 15.4871 10.9347C14.9918 10.9529 14.4673 10.9722 14.3761 10.9722C13.8923 10.9894 13.6504 10.713 13.5294 10.5402L13.2357 10.0909L16.8297 6.18585C17.5727 5.37377 18.2985 4.88995 19.6116 4.88995C20.0263 4.88995 20.6138 4.99364 20.8557 5.06274ZM27.884 9.99469L27.8882 9.98724L30.0136 5.25281C29.7717 5.11456 29.236 4.97637 28.8213 4.97637C28.0783 4.95905 27.0762 5.11456 26.4368 6.63513L24.6133 10.9359C24.6078 10.9479 24.6053 10.9549 24.6053 10.9549L24.6133 10.9359C24.6454 10.8656 24.7767 10.6241 25.0718 10.6093C25.0718 10.6093 26.8688 10.5402 27.007 10.5402C27.583 10.5232 27.8102 10.1243 27.884 9.99469ZM3.95688 8.86413L6.09948 9.26153C8.29389 9.65893 9.24426 10.903 9.26153 12.4409C9.26153 12.5489 9.26153 12.6431 9.24924 12.7358C9.27615 11.9369 8.74514 11.1807 7.82739 11.214C7.6576 11.2211 7.24156 11.234 6.79161 11.2479C6.14265 11.268 5.42313 11.2903 5.27008 11.3005C4.4407 11.335 3.35212 11.2659 2.86831 11.1795C2.28082 11.0758 1.71062 10.9203 1.14041 10.5574C0.380137 9.96997 0 9.14056 0 8.29389C0 6.63513 1.17497 5.23553 3.47308 4.95905C5.23553 4.769 7.36084 4.99364 8.53582 5.13184C8.58764 5.33922 8.60492 5.52929 8.60492 5.73663C8.60492 7.29174 7.79284 7.62005 6.99798 7.62005C6.73853 7.62005 6.4155 7.60093 6.04655 7.57916C5.55556 7.55018 4.98329 7.51635 4.37158 7.51635C3.28301 7.51635 2.83375 7.82739 2.83375 8.19024C2.83375 8.58764 3.26573 8.74316 3.95688 8.86413ZM9.24924 12.7358C9.24774 12.747 9.2461 12.758 9.24426 12.7692V12.7864V12.821C9.24663 12.7926 9.24827 12.7641 9.24924 12.7358Z" fill="url(#paint0_linear_6_184)"/>
</g>
<defs>
<linearGradient id="paint0_linear_6_184" x1="24.1127" y1="10.8676" x2="24.0763" y2="3.92196" gradientUnits="userSpaceOnUse">
<stop stop-color="white"/>
<stop offset="1" stop-color="white" stop-opacity="0.25"/>
</linearGradient>
<clipPath id="clip0_6_184">
<rect width="30" height="20.8064" fill="white"/>
</clipPath>
</defs>
</svg>
