<svg width="30" height="30" viewBox="0 0 30 30" fill="none" xmlns="http://www.w3.org/2000/svg">
<path d="M8.02635 14.9255C8.02635 15.9408 7.20802 16.7759 6.17693 16.7759C5.14583 16.7759 4.3275 15.9571 4.3275 14.9255C4.3275 13.9102 5.14583 13.075 6.17693 13.075C7.20802 13.0914 8.02635 13.9102 8.02635 14.9255ZM14.9985 13.0914C13.9838 13.0914 13.1491 13.9102 13.1491 14.9418C13.1491 15.9571 13.9674 16.7923 14.9985 16.7923C16.0133 16.7923 16.848 15.9735 16.848 14.9418C16.848 13.9102 16.0296 13.0914 14.9985 13.0914ZM30.0067 14.9255C30.0067 23.2115 23.2964 29.9255 15.0149 29.9255C6.73339 29.9255 0.00671387 23.2115 0.00671387 14.9255C0.00671387 6.63944 6.71702 -0.0745335 14.9985 -0.0745335C23.28 -0.0745335 30.0067 6.63944 30.0067 14.9255ZM10.334 14.9255C10.334 12.6329 8.48462 10.7825 6.19329 10.7825C3.90197 10.7825 2.05254 12.6329 2.05254 14.9255C2.05254 17.218 3.90197 19.0685 6.19329 19.0685C7.38806 19.0685 8.04272 18.2825 8.04272 18.2825V19.003H10.3504L10.334 14.9255ZM19.1556 14.9255C19.1556 12.6329 17.3062 10.7825 15.0149 10.7825C13.902 10.7825 13.1655 11.3883 13.1655 11.3883V8.75189H10.8578V14.9255C10.8578 17.218 12.7072 19.0685 14.9985 19.0685C17.2899 19.0849 19.1556 17.218 19.1556 14.9255ZM27.9282 15.4659H25.5877C25.3586 16.2191 24.6548 16.7759 23.8201 16.7759C22.8054 16.7759 21.9707 15.9571 21.9707 14.9255C21.9707 13.9102 22.789 13.075 23.8201 13.075C24.6548 13.075 25.3586 13.6318 25.5877 14.3851H27.9282C27.6663 12.3709 25.9314 10.7825 23.8201 10.7825C21.5288 10.7825 19.6794 12.6329 19.6794 14.9255C19.6794 17.218 21.5288 19.0685 23.8201 19.0685C25.9314 19.0849 27.6663 17.4964 27.9282 15.4659Z" fill="#121212"/>
</svg>
