<svg width="24" height="24" viewBox="0 0 24 24" fill="none" xmlns="http://www.w3.org/2000/svg">
<path d="M12.0002 10.52C11.5902 10.52 11.2502 10.18 11.2502 9.77V6.44C11.2502 6.03 11.5902 5.69 12.0002 5.69C12.4102 5.69 12.7502 6.03 12.7502 6.44V9.77C12.7502 10.19 12.4102 10.52 12.0002 10.52Z" fill="white"/>
<path d="M12.0204 20.35C9.44036 20.35 6.87036 19.94 4.42036 19.12C3.51036 18.82 2.82036 18.17 2.52036 17.35C2.22036 16.53 2.32036 15.59 2.81036 14.77L4.08036 12.65C4.36036 12.18 4.61036 11.3 4.61036 10.75V8.64999C4.61036 4.55999 7.93036 1.23999 12.0204 1.23999C16.1104 1.23999 19.4304 4.55999 19.4304 8.64999V10.75C19.4304 11.29 19.6804 12.18 19.9604 12.65L21.2304 14.77C21.7004 15.55 21.7804 16.48 21.4704 17.33C21.1604 18.18 20.4804 18.83 19.6204 19.12C17.1704 19.95 14.6004 20.35 12.0204 20.35ZM12.0204 2.74999C8.76036 2.74999 6.11036 5.39999 6.11036 8.65999V10.76C6.11036 11.57 5.79036 12.74 5.37036 13.43L4.10036 15.56C3.84036 15.99 3.78036 16.45 3.93036 16.85C4.08036 17.25 4.42036 17.55 4.90036 17.71C9.50036 19.24 14.5604 19.24 19.1604 17.71C19.5904 17.57 19.9204 17.25 20.0704 16.83C20.2304 16.41 20.1804 15.95 19.9504 15.56L18.6804 13.44C18.2604 12.75 17.9404 11.58 17.9404 10.77V8.66999C17.9304 5.39999 15.2804 2.74999 12.0204 2.74999Z" fill="white"/>
<path d="M12.0002 22.9C10.9302 22.9 9.88017 22.46 9.12017 21.7C8.36017 20.94 7.92017 19.89 7.92017 18.82H9.42017C9.42017 19.5 9.70017 20.16 10.1802 20.64C10.6602 21.12 11.3202 21.4 12.0002 21.4C13.4202 21.4 14.5802 20.24 14.5802 18.82H16.0802C16.0802 21.07 14.2502 22.9 12.0002 22.9Z" fill="white"/>
</svg>
